<svg height="512" viewBox="0 0 64 64" width="512" xmlns="http://www.w3.org/2000/svg"><g id="Jeans-3" data-name="Jeans"><path d="m16 60h9.08l.25-3h-9.33z"/><path d="m48 18h-1a3 3 0 0 1 -3-3v-7h-24v7a3 3 0 0 1 -3 3h-1v37h9.5l2.5-30.083a1 1 0 0 1 1-.917h6a1 1 0 0 1 1 .917l2.5 30.083h9.5zm-19-2h-2v-2h2zm0-4h-2v-2h2zm8 4h-2v-2h2zm0-4h-2v-2h2z"/><path d="m48 60v-3h-9.33l.25 3z"/><path d="m16 16h1a1 1 0 0 0 1-1v-7h-2z"/><path d="m16 4h13v2h-13z"/><path d="m35 4h13v2h-13z"/><path d="m48 8h-2v7a1 1 0 0 0 1 1h1z"/><path d="m31 4h2v2h-2z"/></g></svg>