<svg id="Capa_1" enable-background="new 0 0 511.997 511.997" height="512" viewBox="0 0 511.997 511.997" width="512" xmlns="http://www.w3.org/2000/svg"><g><path d="m333.839 123.749c-9.42 11.78-14.15 26.05-14.15 40.34 0 13.62 4.3 27.24 12.92 38.74 10.59 14.12 14.93 31.96 12.03 49.36l-10.99 65.93h-155.31l-10.99-65.93c-.59-3.53-.88-7.08-.88-10.61 0-13.88 4.48-27.49 12.92-38.75 17.67-23.56 17.16-56.08-1.23-79.08l-30.88-38.59v-31.06l53.09-10.62c4.88-.98 9.53-2.64 13.84-4.92 9.37-4.93 17.09-12.71 21.93-22.4l4.33-8.66h31.06l4.33 8.66c4.84 9.69 12.56 17.47 21.93 22.4 4.31 2.28 8.96 3.94 13.84 4.92l53.09 10.62v31.06z" fill="#8897dc"/><path d="m260.469 7.499-4.33 8.66c-4.84 9.69-12.56 17.47-21.93 22.4-4.01 2.12-8.3 3.7-12.81 4.69-.34.09-.68.16-1.03.23l-53.09 10.62v31.06l30.88 38.59c18.39 23 18.9 55.52 1.23 79.08-8.44 11.26-12.92 24.87-12.92 38.75 0 3.53.29 7.08.88 10.61l5.81 34.87 5.18 31.06h-20l-10.99-65.93c-.59-3.53-.88-7.08-.88-10.61 0-13.88 4.48-27.49 12.92-38.75 17.67-23.56 17.16-56.08-1.23-79.08l-30.88-38.59v-31.06l53.09-10.62c4.88-.98 9.53-2.64 13.84-4.92 9.37-4.93 17.09-12.71 21.93-22.4l4.33-8.66h20z" fill="#7685cc"/><path d="m173.165 287.061h165.665l-5.177 31.062h-155.311z" fill="#f9e487"/><path d="m198.339 318.119h-20l-5.17-31.06h19.99z" fill="#f9bf6c"/><path d="m297.789 38.559c-24.81 18.44-58.77 18.44-83.58 0 9.37-4.93 17.09-12.71 21.93-22.4l4.33-8.66h31.06l4.33 8.66c4.84 9.69 12.56 17.47 21.93 22.4z" fill="#f9e487"/><path d="m260.469 7.499-4.33 8.66c-4.84 9.69-12.56 17.47-21.93 22.4-4.01 2.12-8.3 3.7-12.81 4.69-2.47-1.4-4.87-2.96-7.19-4.69 9.37-4.93 17.09-12.71 21.93-22.4l4.33-8.66z" fill="#f9bf6c"/><path d="m162.811 473.435h186.374v31.062h-186.374z" fill="#555e84"/><path d="m162.809 473.439h20v31.06h-20z" fill="#4d5375"/><path d="m318.122 473.435h-124.249c0-17.155 13.907-31.062 31.062-31.062h62.125c17.155-.001 31.062 13.906 31.062 31.062z" fill="#8897dc"/><path d="m244.939 442.369c-8.58 0-16.35 3.48-21.97 9.1s-9.1 13.39-9.1 21.97h-20c0-8.58 3.48-16.35 9.1-21.97s13.39-9.1 21.97-9.1z" fill="#7685cc"/><path d="m240.467 318.123h31.062v124.249h-31.062z" fill="#f0f6ff"/><path d="m240.469 318.119h15v124.25h-15z" fill="#dfe9f7"/><g><path d="m182.635 148.505c2.37 4.473 3.637 6.49 9.257 5.177 4.034-.942 6.304-5.271 5.178-9.256-6.663-23.574-27.367-43.251-42.291-61.905l.002-22.28c18.82-3.762 40.93-5.421 58.734-13.016 25.516 16.756 59.472 16.756 84.988-.002 3.156 1.351 6.452 2.436 9.859 3.229 4.037.936 8.067-1.571 9.005-5.604.939-4.034-1.57-8.067-5.604-9.005-16.027-3.732-27.615-16.782-33.52-31.696-1.271-2.539-3.867-4.143-6.706-4.143l-31.061-.004c-2.841 0-5.438 1.605-6.708 4.145-5.775 15.446-18.119 28.629-34.866 31.977l-53.091 10.614c-3.505.701-6.029 3.779-6.03 7.354l-.003 31.061c0 1.703.58 3.356 1.644 4.686 13.568 16.959 35.161 37.251 41.213 58.668zm60.212-128.991 2.257-4.515h21.792l2.254 4.515c3.663 7.325 8.733 13.688 14.836 18.795-17.646 8.899-38.305 8.903-55.954.013 6.082-5.095 11.137-11.454 14.815-18.808z"/><path d="m366.191 46.744-22.62-4.529c-4.066-.812-8.014 1.82-8.827 5.882s1.82 8.014 5.881 8.827l16.593 3.322v22.281l-29.237 36.538c-19.981 24.987-20.637 62.563-1.373 88.264 9.309 12.412 13.184 28.313 10.632 43.627l-4.768 28.605h-152.957l-4.769-28.608c-2.441-14.612 1.817-31.849 10.644-43.626 5.955-7.943 10.135-16.835 12.424-26.427.962-4.029-1.525-8.075-5.554-9.036-4.027-.96-8.074 1.525-9.036 5.554-1.81 7.584-5.12 14.62-9.837 20.913-11.147 14.871-16.519 36.641-13.437 55.092l10.99 65.93c.603 3.616 3.732 6.267 7.398 6.267h54.63v109.253h-8.033c-18.698 0-34.33 13.376-37.83 31.063h-24.295c-4.142 0-7.5 3.357-7.5 7.5v31.063c0 4.143 3.358 7.5 7.5 7.5h186.374c4.142 0 7.5-3.357 7.5-7.5v-31.063c0-4.143-3.358-7.5-7.5-7.5h-24.295c-3.5-17.686-19.132-31.063-37.829-31.063h-8.031v-38.283c0-4.143-3.358-7.5-7.5-7.5s-7.5 3.357-7.5 7.5v38.28h-16.06v-109.25h16.06v38.28c0 4.143 3.358 7.5 7.5 7.5s7.5-3.357 7.5-7.5v-38.28h54.62c3.666 0 6.795-2.65 7.398-6.267l10.99-65.931c3.223-19.337-1.671-39.417-13.426-55.091-15.43-20.586-15.014-49.763 1.084-69.896l30.88-38.59c1.064-1.329 1.644-2.982 1.644-4.686v-31.061c0-3.574-2.523-6.652-6.028-7.354zm-24.506 450.253h-171.374v-16.063h171.374zm-32.287-31.063h-106.801c3.139-9.327 11.967-16.063 22.339-16.063h62.125c10.371.001 19.198 6.736 22.337 16.063zm-124.706-155.315-2.677-16.058h147.956l-2.677 16.058z"/></g></g></svg>