<svg id="Capa_1" enable-background="new 0 0 512 512" height="512" viewBox="0 0 512 512" width="512" xmlns="http://www.w3.org/2000/svg"><g><circle cx="261.742" cy="123.869" r="15"/><circle cx="148.18" cy="286.053" r="15"/><circle cx="123.869" cy="148.18" r="15"/><path d="m234.481 372.378c22.438-3.956 49.406-10.131 79.231-19.937 14.214-4.673 29.571-4.79 43.767-.06l.008.003c10.897 3.631 22.527 4.487 33.839 2.493 12.237-2.158 20.408-13.827 18.25-26.064l-.001-.008c-1.994-11.306-6.773-21.938-13.907-30.934-9.287-11.712-14.427-26.061-14.892-41.001-.771-24.768-3.228-52.112-8.397-81.429-5.212-29.56-12.33-56.292-20.153-79.976-4.563-13.815-4.624-28.655-.028-42.459l.159-.476c3.661-10.996 4.515-22.619 2.521-33.925l-.001-.008c-2.158-12.237-13.827-20.408-26.064-18.25-11.311 1.994-21.947 6.777-30.945 13.916l-.008.006c-11.722 9.299-26.192 14.442-41.147 14.912-31.38.986-58.833 4.407-81.271 8.363-22.438 3.957-49.405 10.132-79.23 19.937-14.214 4.673-29.571 4.79-43.766.06l-.01-.003c-10.897-3.631-22.527-4.487-33.839-2.493-12.238 2.158-20.409 13.827-18.251 26.064l.001.008c1.994 11.306 6.773 21.938 13.907 30.934 9.287 11.712 14.427 26.061 14.892 41.001.771 24.768 3.228 52.112 8.397 81.429 5.212 29.56 12.33 56.292 20.152 79.976 4.563 13.815 4.624 28.655.028 42.459l-.159.476c-3.661 10.996-4.515 22.619-2.522 33.925l.001.008c2.158 12.237 13.827 20.408 26.064 18.25 11.312-1.995 21.947-6.778 30.946-13.916l.007-.005c11.722-9.299 26.193-14.443 41.148-14.913 31.382-.986 58.834-4.407 81.273-8.363zm96.572-110.636c0 24.813-20.187 45-45 45s-45-20.187-45-45 20.187-45 45-45 45 20.187 45 45zm-69.311-182.873c24.813 0 45 20.187 45 45s-20.187 45-45 45-45-20.187-45-45 20.187-45 45-45zm-182.873 69.311c0-24.813 20.187-45 45-45s45 20.187 45 45-20.187 45-45 45-45-20.187-45-45zm24.311 137.873c0-24.813 20.187-45 45-45s45 20.187 45 45-20.187 45-45 45-45-20.187-45-45z"/><circle cx="286.053" cy="261.742" r="15"/><path d="m503.626 207.479c5.515-10.193 8.374-21.491 8.374-32.972v-.008c0-12.426-10.073-22.499-22.499-22.499-11.486 0-22.791 2.863-32.892 8.331l-.009.005c-13.158 7.122-28.302 9.675-43.111 7.541-4.167-.6-8.268-1.141-12.308-1.635.244 1.33.507 2.66.741 3.99 4.972 28.193 7.946 57.028 8.839 85.705.27 8.638 3.179 16.693 8.414 23.295 9.941 12.535 16.746 27.431 19.722 43.148l.025.101.198 1.124c5.026 28.508-14.078 55.79-42.586 60.815-5.665.999-11.455 1.506-17.207 1.506-10.664 0-21.202-1.709-31.321-5.079l-.159-.054c-3.855-1.267-7.904-1.908-12.037-1.908-4.298 0-8.58.691-12.729 2.055-27.324 8.984-55.382 16.045-83.392 20.982-23.71 4.182-47.977 6.93-72.312 8.228.19 1.377.383 2.75.581 4.11 2.095 14.398-.422 29.022-7.346 41.819l-.239.441c-5.513 10.194-8.373 21.492-8.373 32.973v.008c0 12.426 10.073 22.499 22.499 22.499 11.486 0 22.791-2.863 32.892-8.331l.008-.004c13.158-7.123 28.303-9.675 43.112-7.541 31.075 4.478 58.705 5.876 81.489 5.876s50.414-1.398 81.489-5.876c14.809-2.134 29.954.418 43.112 7.541l.008.004c10.101 5.468 21.406 8.331 32.892 8.331 12.426 0 22.499-10.073 22.499-22.499v-.008c0-11.481-2.861-22.781-8.324-32.879-7.112-13.146-9.682-28.17-7.546-42.964 3.541-24.526 5.87-51.881 5.87-81.65 0-30.016-2.368-57.578-5.959-82.261-2.095-14.398.422-29.022 7.346-41.819z"/></g></svg>