<svg id="Capa_1" enable-background="new 0 0 512 512" height="512" viewBox="0 0 512 512" width="512" xmlns="http://www.w3.org/2000/svg"><g><path d="m427.786 229.535c0 25.843 21.025 46.868 46.868 46.868 5.491 0 10.88-.95 16.019-2.822l-10.385-90.573c-1.87-.224-3.765-.34-5.634-.34-25.843 0-46.868 21.024-46.868 46.867z"/><path d="m99.23 448.707c-1.178-28.591-24.525-51.506-53.151-52.168-14.319-.327-27.987 4.888-38.469 14.694-.71.665-1.472 1.24-2.265 1.74l-5.246 45.754c-.487 4.248.862 8.502 3.708 11.693 2.846 3.19 6.918 5.016 11.194 5.016h78.502c.035-.074.061-.15.098-.224 4.118-8.277 6.012-17.194 5.629-26.505z"/><path d="m511.902 458.728-17.755-154.841c-6.348 1.666-12.876 2.517-19.494 2.517-42.385 0-76.868-34.482-76.868-76.868 0-42.385 34.483-76.867 76.868-76.867.718 0 1.438.013 2.159.033l-2.997-26.135h-170.791v46.915c0 8.284-6.716 15-15 15s-15-6.716-15-15v-46.915h-30.003v46.915c0 8.284-6.716 15-15 15s-15-6.716-15-15v-46.915h-70.41c-9.164 42.874-47.35 74.717-92.454 74.717-.18 0-11.507-.011-20.535-.04l-19.823 172.876c11.463-5.236 24.037-7.871 36.973-7.573 44.397 1.027 80.605 36.574 82.433 80.926.39 9.475-.832 18.946-3.552 27.964h88.701c6.924 0 12.948-4.739 14.579-11.469l27.067-111.749 27.068 111.749c1.63 6.729 7.654 11.469 14.579 11.469h199.353c4.276 0 8.349-1.825 11.194-5.016 2.847-3.192 4.195-7.445 3.708-11.693zm-120.131-140.205c24.813 0 45 20.187 45 45s-20.187 45-45 45-45-20.187-45-45 20.187-45 45-45zm-229.664-101.08c24.813 0 45 20.187 45 45s-20.187 45-45 45-45-20.187-45-45 20.187-45 45-45z"/><path d="m50.156 171.283c28.545 0 53.023-18.68 61.429-44.717h-73.401l-5.124 44.685c7.659.02 15.994.032 17.096.032z"/><path d="m471.998 96.566v-45.003c0-8.284-6.716-15-15-15h-401.996c-8.284 0-15 6.716-15 15v45.003z"/><circle cx="162.107" cy="262.443" r="15"/><circle cx="391.771" cy="363.523" r="15"/></g></svg>