<?xml version="1.0" encoding="iso-8859-1"?>
<!-- Generator: Adobe Illustrator 17.1.0, SVG Export Plug-In . SVG Version: 6.00 Build 0)  -->
<!DOCTYPE svg PUBLIC "-//W3C//DTD SVG 1.1//EN" "http://www.w3.org/Graphics/SVG/1.1/DTD/svg11.dtd">
<svg version="1.1" id="Capa_1" xmlns="http://www.w3.org/2000/svg" xmlns:xlink="http://www.w3.org/1999/xlink" x="0px" y="0px"
	 viewBox="0 0 405.689 405.689" style="enable-background:new 0 0 405.689 405.689;" xml:space="preserve">
<g>
	<path d="M401.99,373.79l-64.515-250.893c-1.138-4.422-3.761-11.323-5.848-15.382l-18.538-36.057
		c-2.443-4.75-8.54-8.472-13.881-8.472H106.483c-5.345,0-11.433,3.731-13.858,8.494l-18.937,37.183
		c-2.07,4.066-4.679,10.97-5.815,15.39L3.699,373.79c-0.716,2.785-0.209,5.564,1.39,7.626c1.599,2.062,4.165,3.244,7.041,3.244
		H26.55c3.986,0,10.299,1.632,13.787,3.563l28.078,15.553c2.226,1.233,5.142,1.912,8.209,1.912s5.983-0.679,8.209-1.912
		l28.078-15.553c1.475-0.817,3.584-1.286,5.787-1.286s4.312,0.469,5.787,1.286l28.078,15.553c2.226,1.233,5.142,1.912,8.209,1.912
		s5.983-0.679,8.209-1.912l28.078-15.553c1.475-0.817,3.584-1.286,5.787-1.286s4.312,0.469,5.787,1.286l28.078,15.553
		c2.226,1.233,5.142,1.912,8.209,1.912s5.983-0.679,8.209-1.912l28.078-15.553c1.475-0.817,3.584-1.286,5.787-1.286
		s4.312,0.469,5.787,1.286l28.078,15.553c2.226,1.233,5.142,1.912,8.209,1.912s5.983-0.679,8.209-1.912l28.078-15.553
		c3.487-1.932,9.801-3.563,13.787-3.563h14.421c2.875,0,5.441-1.182,7.04-3.244S402.706,376.575,401.99,373.79z"/>
	<path d="M105.298,47.41h195.094c4.136,0,7.5-3.364,7.5-7.5V7.5c0-4.135-3.364-7.5-7.5-7.5H105.298c-4.136,0-7.5,3.365-7.5,7.5
		v32.41C97.798,44.046,101.163,47.41,105.298,47.41z M179.845,14.705c0-3.309,2.691-6,6-6h34c3.309,0,6,2.691,6,6v18
		c0,3.309-2.691,6-6,6h-34c-3.309,0-6-2.691-6-6V14.705z"/>
	<rect x="189.845" y="18.705" width="26" height="10"/>
</g>
<g>
</g>
<g>
</g>
<g>
</g>
<g>
</g>
<g>
</g>
<g>
</g>
<g>
</g>
<g>
</g>
<g>
</g>
<g>
</g>
<g>
</g>
<g>
</g>
<g>
</g>
<g>
</g>
<g>
</g>
</svg>
